<svg width="345" height="509" viewBox="0 0 345 509" fill="none" xmlns="http://www.w3.org/2000/svg">
<path d="M0 27.2354C0 12.1937 12.1944 0 27.2368 0H317.763C332.806 0 345 12.1937 345 27.2354V481.765C345 496.806 332.806 509 317.763 509H27.2368C12.1944 509 0 496.806 0 481.765V27.2354Z" fill="#F0F0F0"/>
<path d="M18.7617 51.4446C18.7617 50.4418 19.5747 49.6289 20.5775 49.6289H324.42C325.422 49.6289 326.235 50.4418 326.235 51.4446V458.16C326.235 459.163 325.422 459.976 324.42 459.976H20.5775C19.5747 459.976 18.7617 459.163 18.7617 458.16V51.4446Z" fill="white"/>
<path fill-rule="evenodd" clip-rule="evenodd" d="M324.42 50.2341H20.5775C19.9089 50.2341 19.367 50.7761 19.367 51.4446V458.16C19.367 458.829 19.909 459.371 20.5775 459.371H324.42C325.088 459.371 325.63 458.829 325.63 458.16V51.4446C325.63 50.7761 325.088 50.2341 324.42 50.2341ZM20.5775 49.6289C19.5747 49.6289 18.7617 50.4418 18.7617 51.4446V458.16C18.7617 459.163 19.5747 459.976 20.5775 459.976H324.42C325.422 459.976 326.235 459.163 326.235 458.16V51.4446C326.235 50.4418 325.422 49.6289 324.42 49.6289H20.5775Z" fill="#DEDEDE"/>
<path d="M177.341 27.5373C177.341 30.0442 175.308 32.0765 172.801 32.0765C170.294 32.0765 168.262 30.0442 168.262 27.5373C168.262 25.0303 170.294 22.998 172.801 22.998C175.308 22.998 177.341 25.0303 177.341 27.5373Z" fill="#EFEFEF"/>
<path fill-rule="evenodd" clip-rule="evenodd" d="M172.801 31.4713C174.974 31.4713 176.735 29.71 176.735 27.5373C176.735 25.3646 174.974 23.6033 172.801 23.6033C170.628 23.6033 168.867 25.3646 168.867 27.5373C168.867 29.71 170.628 31.4713 172.801 31.4713ZM172.801 32.0765C175.308 32.0765 177.341 30.0442 177.341 27.5373C177.341 25.0303 175.308 22.998 172.801 22.998C170.294 22.998 168.262 25.0303 168.262 27.5373C168.262 30.0442 170.294 32.0765 172.801 32.0765Z" fill="#A6A6A6"/>
<path d="M185.815 483.581C185.815 490.934 179.853 496.896 172.499 496.896C165.145 496.896 159.184 490.934 159.184 483.581C159.184 476.227 165.145 470.266 172.499 470.266C179.853 470.266 185.815 476.227 185.815 483.581Z" fill="white"/>
<path fill-rule="evenodd" clip-rule="evenodd" d="M172.499 495.685C179.185 495.685 184.605 490.266 184.605 483.581C184.605 476.896 179.185 471.476 172.499 471.476C165.814 471.476 160.394 476.896 160.394 483.581C160.394 490.266 165.814 495.685 172.499 495.685ZM172.499 496.896C179.853 496.896 185.815 490.934 185.815 483.581C185.815 476.227 179.853 470.266 172.499 470.266C165.145 470.266 159.184 476.227 159.184 483.581C159.184 490.934 165.145 496.896 172.499 496.896Z" fill="#868686"/>
</svg>
